<?xml version="1.0" encoding="UTF-8"?>
<svg width="81px" height="116px" viewBox="0 0 81 116" version="1.1" xmlns="http://www.w3.org/2000/svg" xmlns:xlink="http://www.w3.org/1999/xlink">
    <!-- Generator: Sketch 59.1 (86144) - https://sketch.com -->
    <title>编组 2</title>
    <desc>Created with Sketch.</desc>
    <defs>
        <linearGradient x1="0.984465318%" y1="50.9844653%" x2="99.0155347%" y2="50.9844653%" id="linearGradient-1">
            <stop stop-color="#00A4FF" offset="0%"></stop>
            <stop stop-color="#006EFF" offset="100%"></stop>
        </linearGradient>
    </defs>
    <g id="我的-家庭房间管理" stroke="none" stroke-width="1" fill="none" fill-rule="evenodd">
        <g id="我的" transform="translate(-54.000000, -166.000000)" fill-rule="nonzero">
            <g id="List/List_3首页信息" transform="translate(0.000000, 128.000000)">
                <g id="Group-2">
                    <g id="编组" transform="translate(30.000000, 24.000000)">
                        <g id="icon-头像-默认头像-男">
                            <g id="编组-2">
                                <g transform="translate(24.000000, 14.000000)">
                                    <path d="M81,116 C80.1351351,108.741667 62.6216216,103 41,103 C19.3783784,103 1.86486486,108.741667 1,116 L81,116 Z" id="Shape" fill="url(#linearGradient-1)"></path>
                                    <g id="Group" transform="translate(2.000000, 31.000000)" fill="#222222">
                                        <polygon id="Shape" points="0 1.1 3.25 31.9 6.5 31.9 6.5 0 0 0"></polygon>
                                        <polygon id="Shape" points="71.5 1.1 71.5 33 74.75 33 78 2.2 78 1.1"></polygon>
                                    </g>
                                    <path d="M57,116 C55.3946729,107.018132 54.9290461,101.123924 55.6031196,98.3173753 C56.6142298,94.1075531 27.0916994,93.6858853 27.3968804,98.3173753 C27.6003344,101.405035 27.1347076,107.299244 26,116 L57,116 Z" id="Shape" fill="#FFDFDD"></path>
                                    <path d="M12.9684544,53.1242732 C10.3747635,51.8139282 0,49.7392153 0,59.6759982 C0,69.5035856 5.61966358,71.9058848 7.56493174,73.8714022 C9.5101999,75.8369197 15.5621453,76.9288739 16.210568,74.9633564 C16.8589907,72.9978389 15.5621453,54.4346182 12.9684544,53.1242732 Z M67.2468396,53.1242732 C64.6531487,54.4346182 63.3563033,72.9978389 64.004726,74.9633564 C64.6531487,76.9288739 70.5970237,75.8369197 72.5422918,73.8714022 C74.48756,71.9058848 79.9991531,69.5035856 79.9991531,59.6759982 C80.1072236,49.7392153 69.8405305,51.8139282 67.2468396,53.1242732 Z" id="Shape" fill="#FFDFDD"></path>
                                    <path d="M41.5833333,104 C41.15,104 40.5,104 40.5,104 C40.5,104 39.85,104 39.4166667,104 C19.9166667,104 8,82.4970268 8,44.7087136 L8,22 L73,22 L73,44.7087136 C73,82.4970268 61.0833333,104 41.5833333,104 Z" id="Shape" fill="#FFF2F1"></path>
                                    <path d="M74.5833333,33.3771518 L74.5833333,43 C72.5232243,43 70.3825064,42.5193528 69.5981262,41.3088027 C68.4703748,39.5683208 66.0920424,35.6364199 64.8333333,32.3004695 C63.5195378,28.8185239 63.9395833,25.8403756 58.3333333,25.8403756 L44.25,25.8403756 L29.0833333,25.8403756 L23.6666667,25.8403756 C19.0760417,25.8403756 18.4804622,28.8185239 17.1666667,32.3004695 C15.9054718,35.643008 13.5242424,39.5798624 12.3891659,41.3191006 C11.6032402,42.5233472 9.47014691,43 7.41666667,43 L7.41666667,32.3004695 L2,32.3004695 L2,31.2237872 C2,24.0100156 5.25,17.5499218 10.3416667,13.2431925 C7.85,9.47480438 6.33333333,4.84507042 6.33333333,0 L47.5,0 C65.4833333,0 80,14.427543 80,32.3004695 L80,33.3771518 L74.5833333,33.3771518 Z" id="Shape" fill="#222222"></path>
                                    <path d="M41,95 C34.4,95 29,89.6 29,83 L53,83 C53,89.6 47.6,95 41,95 Z" id="Shape" fill="#FFC6C1"></path>
                                </g>
                            </g>
                        </g>
                    </g>
                </g>
            </g>
        </g>
    </g>
</svg>